<svg xmlns="http://www.w3.org/2000/svg" viewBox="0 0 640 640">
  <defs>
    <path id="arcTop" d="M 123.0 285.3 A 200 200 0 0 1 517.0 285.3" fill="none"/>
    <path id="arcBottom" d="M 127.4 390.1 A 205 205 0 0 0 512.6 390.1" fill="none"/>
  </defs>

  <circle cx="320" cy="320" r="308" fill="#0f5c34" stroke="#dda637" stroke-width="6"/>
  <circle cx="320" cy="320" r="246" fill="#f6dfae" stroke="#dda637" stroke-width="5"/>

  <circle cx="127.4" cy="285.3" r="7" fill="#dda637"/>
  <circle cx="512.6" cy="285.3" r="7" fill="#dda637"/>

  <text font-family="Arial, Helvetica, sans-serif" font-weight="800" font-size="42" fill="#dda637" letter-spacing="1">
    <textPath href="#arcTop" startOffset="50%" text-anchor="middle">100 Jahre</textPath>
  </text>

  <text font-family="Arial, Helvetica, sans-serif" font-weight="800" font-size="30" fill="#dda637" letter-spacing="0.5">
    <textPath href="#arcBottom" startOffset="50%" text-anchor="middle">Schützen vom Bahnhof · 4. Komp.</textPath>
  </text>

  <g transform="translate(320 335)">
    <rect x="-130" y="60" width="270" height="10" fill="#0a0a0a"/>
    <rect x="-110" y="10" width="230" height="50" rx="6" fill="#0a0a0a"/>
    <rect x="90" y="-14" width="40" height="30" rx="4" fill="#0a0a0a"/>
    <rect x="100" y="-26" width="24" height="16" fill="#0a0a0a"/>
    <circle cx="-70" cy="70" r="16" fill="#0a0a0a"/>
    <circle cx="-25" cy="70" r="16" fill="#0a0a0a"/>
    <circle cx="20" cy="70" r="16" fill="#0a0a0a"/>
    <circle cx="65" cy="70" r="16" fill="#0a0a0a"/>
    <circle cx="-55" cy="30" r="8" fill="#f6dfae"/>
    <circle cx="-15" cy="30" r="8" fill="#f6dfae"/>
    <circle cx="-70" cy="-10" r="24" fill="#0a0a0a"/>
    <circle cx="-95" cy="-32" r="18" fill="#0a0a0a"/>
    <circle cx="-112" cy="-55" r="13" fill="#0a0a0a"/>
    <circle cx="-122" cy="-78" r="9" fill="#0a0a0a"/>
  </g>

  <circle cx="320" cy="320" r="308" fill="none" stroke="#dda637" stroke-width="2"/>
  <circle cx="320" cy="320" r="246" fill="none" stroke="#dda637" stroke-width="2"/>
</svg>
